<?xml version="1.0" encoding="utf-8"?>
<!-- Generator: Adobe Illustrator 15.1.0, SVG Export Plug-In . SVG Version: 6.00 Build 0)  -->
<!DOCTYPE svg PUBLIC "-//W3C//DTD SVG 1.1//EN" "http://www.w3.org/Graphics/SVG/1.1/DTD/svg11.dtd">
<svg version="1.1" id="레이어_1" xmlns="http://www.w3.org/2000/svg" xmlns:xlink="http://www.w3.org/1999/xlink" x="0px"
	 y="0px" width="158px" height="63.25px" viewBox="0 0 158 63.25" enable-background="new 0 0 158 63.25" xml:space="preserve">
<g>
	<path fill="#2C3F51" d="M39.485,29.808c-0.96-1.491-2.093-2.387-3.439-3.301c-0.012-0.4-0.51-0.315-0.55-0.688
		c1.961-1.734,2.418-5.392,1.307-7.84c-0.666-1.469-2.655-3.744-3.645-4.539c-1.054-0.847-2.877-1.972-4.058-2.751
		c-0.173-0.105-0.261-0.248-0.275-0.344c-0.521,0.057-1.142-0.729-1.719-0.619c0.027-0.098,0.083-0.116,0-0.206
		c-3.532-1.583-7.017-2.9-11.141-3.645c-0.011,0.081,0.012,0.195-0.069,0.206c-0.022-0.026,0.029-0.19,0-0.206
		c-0.488-0.271-2.573-0.206-3.232,0c-0.276,0.086-0.75,0.258-1.169,0.206c-0.486,0.209-1.097,0.636-1.651,0.55
		C9.474,6.955,9.28,7.115,8.813,7.251c0-0.038-0.056-0.078-0.069,0c0.103,0.129-0.33,0.309-0.55,0.344
		c-2.102,2.049-4.273,4.702-5.845,7.29c0.102,0.013,0.063,0.166,0.069,0.274c-0.324,0.774-0.958,2.003-1.032,2.889
		c-0.027,0.319-0.04,0.977,0.099,1.03c-0.133-0.008-0.221,0.029-0.236,0.139c0.37,1.138-0.1,2.713,0.825,3.852
		c-0.162,0.519,0.631,1.563,0,1.443c-0.033,0.554,0.231,0.32,0.344,0.482c0.206,0.204-0.174,0.175-0.069,0.481
		c0.221,0.06,0.143-0.179,0.275-0.207c-0.13,1.005,0.446,1.11,0.619,1.857c0.212,0.051,0.132-0.189,0.344-0.138
		c0.152,0.603,0.812,1.221,1.307,0.963c-0.284-0.101-0.311-0.424-0.207-0.619c0.152,0.274,0.563,0.133,0.688,0.55
		c1.168,0.382,3.137,0.542,4.126,1.307c0.188,0.05,0.139-0.137,0.275-0.138c0.937,0.762,1.925,1.202,3.095,1.444
		c-0.457-0.437-0.984-0.804-1.788-0.894c-0.371-0.308-0.575-0.609-1.032-0.688c0.046-0.094-0.377-0.475-0.756-0.551
		c-2.568-2.389-5.214-6.072-5.295-10.591c-0.022-1.239,0.21-2.959,0.757-3.988c0.093-0.176,0.315-0.284,0.412-0.481
		c0.101-0.203,0.095-0.484,0.207-0.688c0.064-0.116,0.25-0.14,0.344-0.275c0.568-0.827,0.769-1.588,1.65-1.926
		c2.367-0.914,5.719-1.074,8.459,0c1-0.037,1.803,0.719,2.957,0.757c1.689,0.547,3.281,1.497,5.227,2.132
		c0.961,0.641,2.118,1.191,3.232,1.994c-0.557,0.635-1.41,0.974-1.925,1.65c-0.423,0.242-0.958,0.373-1.032,0.963
		c-1.626,1.037-1.087,4.751-1.444,7.152c-0.011,0.077-0.135,0.156-0.137,0.206c-0.018,0.311,0.152,0.624,0.137,0.895
		c0,0.005-0.139-0.062-0.137-0.069c-0.089,0.335,0.101,1.039,0.068,1.169c-0.001,0.006-0.205-0.122-0.137,0.069
		c-0.085,2.819-0.587,5.845-0.413,8.39c-0.115,0.068-0.049,0.317-0.206,0.344c-0.076,1.375,0.099,2.401-0.138,3.576
		c-0.399,1.978-2.306,2.874-3.232,4.265c0.578,0.241,1.397,0.536,2.338,0.687c0.665,0.106,1.896,0.055,1.994,0.344
		c1.464-0.042,2.973,0.183,4.333,0.138c0.117-0.004,0.236-0.126,0.344-0.138c0.188-0.02,0.423,0.149,0.619,0.138
		c0.396-0.021,0.653-0.205,1.032-0.206c0.207-0.001,0.46,0.15,0.688,0.138c0.267-0.015,0.559-0.179,0.825-0.206
		c0.822-0.086,1.359,0.07,1.926-0.069c0.432-0.106,0.784-0.522,1.238-0.55c0.965-0.846,1.816-1.807,2.75-2.682
		c-0.006-0.188,0.115-0.139,0-0.275c1.185-0.992,2.092-2.264,3.163-3.37c2.161-1.455,1.254-5.138,0.344-6.739
		C39.988,30.671,39.75,30.222,39.485,29.808z M36.94,39.092c-0.138,0.596,0.023,1.213-0.413,1.719
		c-2.692,0.953-6.75,0.771-10.109,0.344c-1.162-0.146-2.212-0.204-3.232-0.412c0.479-0.852,1.172-1.486,1.719-2.27
		c0.143-0.465,0.181-0.664,0.481-0.894c1.001-3.357,0.669-8.116,1.307-11.76c-0.126-1.925,0.313-4.351,0.481-6.946
		c0.093-1.442-0.006-2.323,0.688-3.095c3.504,2.08,7.055,6.136,4.952,10.935c-0.829,0.551-1.401,1.456-2.407,1.994
		c0.665,0.759,1.706,0.835,2.476,1.376c1.042,0.731,1.577,1.916,2.545,2.682c0.442,0.887,1.017,1.643,1.444,2.545
		c0.218,0.801,0.209,1.713,0.274,2.544c0.012,0.155,0.152,0.325,0.138,0.481C37.257,38.62,36.999,38.84,36.94,39.092z"/>
	<path fill="#2C3F51" d="M51.04,40.323c-0.596,0.117-1.185-0.192-1.428,0.069c-0.501-0.595-1.327-1.2-1.699-1.7
		c-0.979-1.96-1.536-4.375-1.224-6.662c3.04-1.632,5.861-3.923,7.886-6.799c0.618-0.878,1.476-2.091,1.631-3.264
		c0.332-2.5-1.828-2.085-3.399-1.699c-1.514,0.371-2.531,1.4-3.807,2.107c-1.659,0.92-3.283,1.939-4.283,3.604
		c-0.843,1.402-1.625,3.324-2.04,5.234c-0.695,3.202-0.567,6.328,0.408,8.771c0.771,1.932,2.21,4.035,4.758,4.011
		c1.957-0.019,3.597-2.172,4.623-3.467c1.19-1.502,2.033-3.026,2.992-4.487C54.055,37.006,52.908,39.96,51.04,40.323z M50.563,22.24
		c1.239-0.208,1.804,0.897,1.632,2.039c-0.431,2.858-3.466,5.817-5.235,7.071C47.439,28.264,48.561,24.44,50.563,22.24z"/>
	<path fill="#2C3F51" d="M156.008,37.129c-0.078,0.214,0.107,0.165,0.137,0.272c-0.297,0.04-0.508-0.039-0.408,0.203
		c-0.154,0.012-0.299-0.327-0.408-0.136c0.15,0.145,0.396,0.193,0.408,0.476c0.229-0.133,0.408-0.317,0.477-0.611
		C156.174,37.234,156.105,37.167,156.008,37.129z"/>
	<path fill="#2C3F51" d="M103.932,10.003c0.404-0.41,0.869-0.731,1.291-1.224c0.414-0.482,1.039-0.989,0.477-1.632
		c-0.061,0.061-0.105,0.473-0.203,0.272c0.14-0.872-0.094-1.883-0.68-2.244c-0.178,0.467,0.371,0.968,0.406,1.632
		c0.037,0.655-0.302,1.205-0.339,1.836c-0.752,0.814-1.632,1.234-2.583,1.903c-0.547,0.384-1.133,0.901-1.701,1.155
		c-3.037,1.359-6.813,1.14-11.081,0.952c-3.19-0.141-6.444-0.341-9.11-0.815c0.466-1.534,0.607-3.021,0.885-4.556
		c0.313-1.731,1.016-3.35,1.224-5.167c-1.69,0.712-2.997,1.808-4.556,2.651c-0.824,2.008-0.967,4.699-1.631,6.866
		c-4.428-0.01-8.022,0.012-10.878,1.428c-1.322,0.656-2.371,1.706-3.263,2.788c-0.911,1.104-1.984,2.189-2.584,3.535
		c0.527-0.4,0.794-0.96,1.156-1.428c0.363-0.471,0.767-0.955,1.291-1.359c3.177-2.448,8.56-2.465,13.666-2.38
		c-0.588,2.17-1.047,4.456-1.564,6.799c-0.517,2.342-0.8,4.774-1.224,7.206c-0.43,2.468-1.019,4.938-1.019,7.547
		c0,2.83,0.779,6.551,3.399,6.866c1.675,0.201,3.09-1.35,4.011-2.243c0.8-0.777,1.574-1.739,2.312-2.584
		c1.654-1.897,2.584-4.316,3.738-5.982c-1.043,6.095-1.98,13.48-2.651,20.26c-0.212,2.148-0.356,4.338-0.203,6.391
		c0.093,1.239,0.72,3.362,1.972,3.467c0.973,0.081,1.838-1.128,2.447-1.699c2.266-2.128,3.787-4.652,5.167-7.411
		c-0.698,0.641-1.378,1.686-2.175,2.651c-0.384,0.464-1.716,2.562-2.585,2.38c-0.421-0.089-0.838-1.094-0.883-1.699
		c-0.036-0.462,0.174-1.153,0.203-1.564c0.247-3.369,0.554-7.504,1.224-10.537c1.295,0.279,3.109-0.063,4.352-0.272
		c-0.102,0.102-0.287,0.122-0.34,0.272c1.596-0.828,3.32-1.529,4.555-2.72c1.164-0.519,1.367-1.01,2.447-1.495
		c0.299-0.458,0.7-0.748,1.088-0.952c1.41-1.468,2.443-3.312,2.855-5.779c0.113-3.173,1.348-9.696-0.543-12.032
		c-0.402-0.497-1.409-0.781-2.177-0.681c-1.53,0.201-3.009,1.621-4.078,2.584c-1.56,1.401-2.853,3.058-4.147,4.623
		c-0.987,1.192-1.729,2.534-2.516,3.875c0.104-2.006,1.157-5.212,1.359-7.751c0.086-1.068-0.031-2.025-0.407-2.583
		c-0.87-1.285-2.617-0.178-3.195,0.68c-1.19,0.491-1.979,1.675-2.788,2.516c-0.473,0.492-0.949,0.909-1.427,1.292
		c-0.166,0.132-0.608,0.301-0.477,0.611c0.646-0.295,0.989-0.658,1.632-1.155c0.783-0.606,2.053-2.005,2.447-0.204
		c0.4,1.828-0.777,4.39-1.02,6.255c-1.311,1.784-2.736,4.313-4.351,5.982c-0.799,0.825-1.399,1.797-2.788,1.768
		c-0.465-0.306-0.93-0.611-1.36-0.952c-0.153-0.593-0.311-1.185-0.611-1.632c-0.494-2.631,0.117-4.86,0.477-7.273
		c0.037-0.261,0.145-0.488,0.203-0.748c1.092-4.863,1.252-9.752,2.719-13.938c3.515,0.002,7.351,0.234,11.014,0.068
		c4.327-0.197,7.92-1.403,10.946-2.788c0.976-0.445,2.07-1.076,2.605-1.776C104.242,9.965,103.938,10.042,103.932,10.003z
		 M88.771,36.177c0.176-1.223,0.046-2.405,0.476-3.535c0.282-0.744,1.009-1.805,1.495-2.583c0.137-0.218,0.273-0.429,0.413-0.633
		c0.974-1.427,2.026-2.535,3.327-3.786c0.266-0.256,0.59-0.565,0.941-0.849c0.044-0.036,0.088-0.071,0.133-0.105
		c0.09-0.07,0.182-0.137,0.274-0.201c0.276-0.191,0.563-0.354,0.847-0.452c0.095-0.034,0.189-0.06,0.282-0.078
		c0.095-0.019,0.187-0.028,0.278-0.028c0.063-0.001,0.125,0.003,0.187,0.012c0.432,0.061,0.827,0.356,1.136,1.022
		c0.2,0.431,0.309,0.992,0.366,1.523c0.019,0.178,0.032,0.352,0.042,0.516c0.264,4.641-1.279,10.063-2.992,13.121
		c0.225,0.256-0.029,0.029-0.067,0.067c-0.427,0.452-0.811,1.464-1.427,1.836c-2.319,1.399-4.855-1.186-6.255-2.039
		C88.506,38.795,88.584,37.478,88.771,36.177z"/>
	<path fill="#2C3F51" d="M104.408,9.799c-0.015,0.02-0.031,0.038-0.046,0.059C104.383,9.839,104.4,9.819,104.408,9.799z"/>
	<path fill="#2C3F51" d="M111.818,39.576c0.164-0.215-0.304-0.25-0.477-0.34c-0.259-0.33-0.49-0.688-0.814-0.952
		c-0.018-0.129,0.076-0.149,0.066-0.271c-0.397-0.222-0.449-1.297-0.746-1.021c0.063-0.188,0.245-0.403,0-0.543
		c0.002,0.117-0.053,0.174-0.137,0.204c0.177-0.389-0.039-1.051-0.205-0.884c-0.031-0.831-0.123-1.769-0.34-2.516
		c0.295-0.781,0.026-1.744,0.205-1.972c0.23-0.859,1.105-0.8,1.834-1.224c0.531-0.309,1.168-0.884,1.837-1.36
		c1.474-1.049,2.792-2.259,3.942-3.535c0.676-0.748,1.425-1.767,1.699-2.515c0.17-0.462,0.244-1.063,0.205-1.429
		c-0.223-2.112-2.85-1.47-4.215-0.951c-1.055,0.4-1.886,1.336-3.061,1.563c-0.078,0.125-0.177,0.23-0.271,0.34
		c-3.844,1.734-6.16,6.363-6.525,11.83c-0.31,4.597,1.553,8.672,4.758,9.178c1.848,0.291,3.373-0.647,4.42-1.495
		c0.936-0.759,1.939-1.831,2.787-2.856c0.908-1.098,1.967-2.049,2.516-3.059C117.34,37.466,115.624,40.815,111.818,39.576z
		 M113.109,21.696c0.963,0.244,1.492,1.104,1.359,2.447c-0.266,2.729-3.305,5.09-4.963,6.188
		C109.982,27.196,110.866,23.494,113.109,21.696z"/>
	<path fill="#2C3F51" d="M124.035,34.982c0.01-0.028,0.012-0.066,0.021-0.097C124.049,34.918,124.043,34.949,124.035,34.982z"/>
	<path fill="#2C3F51" d="M132.553,41.479c-0.518,0.868-1.602,1.396-2.039,2.04c1.604-1.207,3.748-2.232,4.963-3.604
		c0.393-0.029,0.994-0.759,0.952-1.224c0.087,0.004,0.095,0.087,0.204,0.068c0.041-0.141-0.084-0.447,0.068-0.477
		c0.007,0.084,0.02,0.161,0.136,0.136c0.007-0.315,0.409-0.595,0-0.543c1.069-0.967,0.825-2.662,1.358-3.943
		c-0.101-0.012-0.25,0.024-0.271-0.068c0.217-0.241,0.175-0.628,0-0.951c0.357-0.299,0.223-0.739,0.408-0.884
		c-0.006-1.002,0.208-1.604,0.34-2.447c0.118-0.754,0.076-1.599,0.205-2.312c0.056-0.317,0.033-1.015,0.135-1.428
		c0.035-0.144,0.186-0.248,0.204-0.408c0.042-0.342,0.007-0.612,0.068-0.884c0.27-1.19-0.157-2.659-0.748-3.672
		c-0.134-0.021-0.134,0.093-0.204,0.137c-0.004-0.119,0.016-0.212,0.068-0.272c-2.062-1.065-4.607,0.367-6.051,1.36
		c-2.848,1.957-5.461,4.941-7.274,7.206c0.062-1.08,0.326-1.764,0.136-2.72c0.188,0.186,0.064-0.1,0.204-0.136
		c-0.114-1.506,1.252-4.096,0.136-5.438c-0.552-0.664-1.549-0.316-2.107,0.068c-1.074,0.739-2.074,2.037-2.923,2.99
		c-0.99,0.552-1.636,1.446-2.243,2.38c1.111-0.412,1.627-2.492,2.99-2.516c0.648-0.011,0.895,0.829,0.884,1.563
		c-0.028,2.183-1.216,5.42-1.292,7.343c-0.133-0.021-0.135,0.092-0.203,0.136c-0.67,2.862-1.513,6.175-1.631,8.975
		c0.076,0.081,0.193,0.123,0.135,0.339c-0.09,0-0.063-0.118-0.135-0.135c0.021,0.453,0.202,0.494,0.066,0.884
		c0.822,0.3,1.24-0.594,1.768-1.156c0.77-0.818,1.787-1.408,2.449-2.175c-0.34-0.024-0.466-0.262-0.545-0.545
		c0.316-0.075,0.151-0.02,0.408-0.204c-0.269-0.265,0.009-0.385,0.067-0.544c0.122-0.327,0.148-1.246,0.34-1.019
		c0.059-1.019,0.31-1.678,0.456-2.419c-0.008,0.021-0.02,0.037-0.048,0.039c0.175-0.198-0.09-0.48,0.068-0.611
		c0.011,0.079-0.012,0.192,0.067,0.203c-0.041-0.24,0.217-0.545,0.136-0.748c-0.021,0.162-0.183-0.075-0.203-0.135
		c0.288-0.163,0.104-0.425,0.339-0.681c-0.186,0.021-0.277-0.396-0.136-0.476c0.007,0.106-0.009,0.235,0.136,0.203
		c0.143-1.818,1.62-3.548,2.584-5.166c1.855-1.77,3.494-3.919,5.643-4.42c2.026-0.471,2.559,1.089,2.447,2.992
		c-0.127,2.169-0.898,5.703-0.747,7.206c-0.218-0.026-0.237,0.436-0.272,0.68c-0.072,0.512-0.054,1.239-0.066,1.671
		c0.005-0.065,0.035-0.13,0.066-0.039c-0.3,1.404-0.734,3.714-1.088,5.099C132.652,40.817,132.688,41.254,132.553,41.479z"/>
	<path fill="#2C3F51" d="M154.988,37.537c0.311-0.118,0.227-0.247,0.611-0.272c-0.25-0.088-0.055-0.263-0.203-0.407
		c-0.189,0.102,0.118,0.277-0.068,0.34c-0.088-0.117-0.406-0.002-0.408-0.205c0.021-0.138,0.137-0.181,0.205-0.271
		c-4.923-1.473-11.688,0.305-15.977,2.242c-1.161,0.524-2.494,1.142-3.672,1.836c-1.58,0.932-3.462,1.453-4.147,2.651
		c4.782-3.344,12.69-6.006,19.513-4.69c0.002,0.39,0.482,0.074,0.611,0.544c0.208,0.049,0.248-0.07,0.408-0.068
		c-0.1,0.305,0.499,0.231,0.34,0.408c0.221,0.084,0.052-0.221,0.271-0.137c0.002,0.16-0.117,0.2-0.067,0.408
		c0.259,0.101,0.013-0.304,0.271-0.203c-0.039,0.22,0.046,0.315,0.067,0.475c0.289-0.172,0.352,0.146,0.477,0.136
		c-0.006,0.108-0.174,0.055-0.136,0.205c0.32-0.072-0.138,0.255,0.204,0.203c0.238-0.019-0.171-0.253,0.067-0.271
		c-0.012,0.177,0.218,0.455,0.069,0.544c-0.166-0.396-0.146,0.045,0.066,0.136c0.519,1.866-0.891,3.705-1.495,5.031
		c0.917-1.259,2.14-3.021,2.312-4.759c0,0.038-0.055,0.076-0.068,0c0.039-0.121,0.035-0.282,0.137-0.34
		c0.01,0.079-0.012,0.192,0.067,0.204c0.13-0.166,0.253-0.337,0.204-0.681c-0.117-0.026-0.174,0.102-0.204,0
		c0.185,0.049-0.048-0.32,0.136-0.272c-0.031,0.323,0.086,0.076,0.205,0.205c-0.088-0.469,0.32-0.74,0.135-1.088
		c0.332,0.087,0.301-0.729,0.545-0.952c-0.1-0.128-0.1-0.353-0.273-0.407c-0.01,0.079,0.012,0.192-0.066,0.203
		c-0.011-0.169,0.035-0.282,0.135-0.34c0.232,0.018,0.139,0.36,0.34,0.408C155.886,37.923,155.381,37.674,154.988,37.537z"/>
	<path fill="#2C3F51" d="M70.007,19.249c-0.563-0.66-1.44-1.083-2.516-1.088c-1.855-0.009-3.546,1.159-4.826,2.039
		c-1.463,1.006-3.131,1.665-4.283,2.584c-1.055,0.841-2.398,2.457-2.651,3.807c-0.343,1.824,0.907,3.131,1.972,4.283
		c0.825,0.893,1.758,1.632,2.651,2.38c0.859,0.72,1.687,1.646,2.583,2.447c0.899,0.803,1.918,1.685,2.447,2.583
		c1.038,1.763,0.212,4.687-1.156,5.982c-1.145,1.086-4.423,2.087-6.867,1.564c-0.895-0.191-2.109-0.632-2.651-1.088
		c-0.855-0.72-0.31-1.99-0.204-3.128c-0.596,0.456-0.488,1.35-0.612,2.244c-0.375,2.696-1.582,5.784,1.428,6.118
		c2.25,0.25,4.205-0.894,5.71-1.768c1.149-1.28,2.744-2.974,4.079-3.875c0.159-0.106,0.27-0.224,0.409-0.34
		c1.603-1.341,3.716-3.452,4.079-6.051c0.185-1.328-0.245-2.226-0.884-3.263c-0.787-0.529-0.963-1.172-1.836-1.632
		c0.052-0.129,0.204-0.047,0.068-0.204c-0.385-0.202-0.674-0.473-0.816-0.748c-1.115-0.927-2.445-1.922-3.535-2.991
		c-0.977-0.959-2.222-2.104-2.651-3.399c-0.865-2.609,1.686-4.756,3.74-4.69c1.232,0.039,2.372,1.001,3.194,1.495
		c0.534,0.32,0.437,0.347,0.816,0.748c0.225,0.237,0.393,0.338,0.477,0.476c0.824,1.365,0.094,3.056-0.136,4.623
		C69.469,26.099,69.235,22.171,70.007,19.249z"/>
</g>
</svg>
