<svg xmlns="http://www.w3.org/2000/svg" xmlns:xlink="http://www.w3.org/1999/xlink" width="133" height="34" viewBox="0 0 133 34">
    <defs>
        <path id="2z2yhu0h5a" d="M0.227 0.081L7.377 0.081 7.377 13.322 0.227 13.322z"/>
    </defs>
    <g fill="none" fill-rule="evenodd">
        <g>
            <g>
                <g>
                    <path fill="#FFF" d="M15.644 0.922L21.45 4.325 20.119 6.543 17.53 4.953 17.53 6.396 21.709 10.76 20.045 12.498 17.382 9.909 17.382 11.5 21.746 14.384 20.341 16.308 17.382 14.458 17.382 17.195 14.571 17.195 14.571 13.312 12.13 14.68 10.688 12.868 14.608 10.427 14.608 8.91 11.428 12.091 9.837 10.279 14.645 5.175 14.645 4.399 12.315 5.841 11.354 3.807z" transform="translate(-44 -44) translate(44 44) translate(0 8)"/>
                    <path fill="#1F1F1F" d="M10.878 3.676l1.277 2.703 2.019-1.249-4.842 5.14 1.703 1.941-.901.562 1.901 2.389 2.162-1.212v3.619h3.559v-2.436l2.682 1.676 1.841-2.52-2.1-1.39 2.048-2.139-4.323-4.515v-.623l2.342 1.438 1.72-2.867L15.63.48l-4.752 3.196zm.951.261l3.828-2.574 5.278 3.093-.942 1.571-2.837-1.742v2.26l4.036 4.215-1.156 1.207-3.028-2.943v2.677l4.205 2.78-.969 1.325-3.236-2.022v3.037h-2.063v-4.147l-2.72 1.524-.983-1.235 3.74-2.328V8.008l-3.537 3.537-1.103-1.257 4.677-4.965V3.727l-2.545 1.576-.645-1.366zm2.405 5.877v.406l-1.075.67 1.075-1.076zm3.522 1.484v-.504l1.623 1.577-1.623-1.073z" transform="translate(-44 -44) translate(44 44) translate(0 8)"/>
                    <path fill="#FFF" d="M0.554 5.767L7.359 0.478 12.944 5.027 11.28 6.803 8.58 4.694 8.58 6.433 13.203 8.615 12.241 10.834 8.58 9.207 8.58 10.981 13.462 14.458 12.093 16.418 8.506 13.903 8.506 17.233 5.991 17.233 5.991 13.645 3.365 16.53 1.553 14.643 6.028 9.465 6.028 8.541 2.329 10.871 1.183 8.947 6.065 5.804 6.065 4.657 2.292 7.616z" transform="translate(-44 -44) translate(44 44) translate(0 8)"/>
                    <path fill="#1F1F1F" d="M7.365 0L0 5.724l2.073 2.205-1.396.9 1.527 2.562 3.45-2.173v.108l-4.607 5.33 2.326 2.421 2.244-2.466v2.995H8.88v-2.984l3.305 2.318 1.796-2.571-5.027-3.58V9.781l3.48 1.547 1.256-2.897-4.736-2.236V5.46l2.365 1.847 2.172-2.318L7.365 0zM1.107 5.81L7.353.956l5.044 4.107-1.157 1.235-3.034-2.37V6.67l4.51 2.129-.668 1.54L8.206 8.63v2.543l4.737 3.374-.942 1.35-3.87-2.714v3.675H6.366v-4.181l-3.007 3.304-1.3-1.352 4.344-5.026v-1.74L2.454 10.35l-.765-1.284 4.75-3.058v-2.12L2.33 7.112l-1.224-1.3zm4.584-.384V5.6l-1.24.798 1.24-.972zM75.448 3.104L75.448 12.618 69.406 3.134 69.234 3.153 69.234 3.104 67.163 3.104 67.163 16.344 69.234 16.344 69.234 6.478 75.443 16.344 75.448 16.343 75.448 16.344 77.519 16.344 77.519 3.104zM31.699 12.293L29.651 9.688 35.018 2.86 32.673 2.807 27.452 9.448 27.294 9.452 27.294 3.104 25.223 3.104 25.223 16.344 27.294 16.344 27.294 9.786 27.343 9.788 30.476 13.774 32.568 16.434 34.913 16.382z" transform="translate(-44 -44) translate(44 44) translate(0 8)"/>
                    <path fill="#1F1F1F" d="M40.655 14.438c-3.044.301-5.58-2.236-5.278-5.28.223-2.252 2.045-4.072 4.297-4.295 3.044-.301 5.58 2.236 5.278 5.28-.223 2.25-2.045 4.072-4.297 4.295m.057-11.513c-4.157-.327-7.6 3.114-7.273 7.27.256 3.27 2.905 5.921 6.175 6.18 4.159.33 7.604-3.114 7.276-7.273-.258-3.27-2.908-5.92-6.178-6.177M60.204 14.438c-3.044.301-5.58-2.237-5.278-5.281.224-2.252 2.047-4.073 4.298-4.294 3.043-.3 5.579 2.237 5.277 5.28-.224 2.251-2.045 4.071-4.297 4.295m.056-11.513c-4.157-.328-7.6 3.115-7.272 7.272.257 3.27 2.906 5.92 6.177 6.178 4.158.33 7.602-3.115 7.274-7.273-.258-3.27-2.908-5.92-6.179-6.177M108.967 14.438c-3.044.302-5.582-2.236-5.28-5.28.224-2.252 2.046-4.073 4.298-4.295 3.042-.302 5.578 2.235 5.277 5.278-.222 2.251-2.043 4.073-4.295 4.297m.056-11.513c-4.156-.328-7.6 3.113-7.274 7.27.256 3.27 2.904 5.92 6.174 6.18 4.159.33 7.605-3.113 7.277-7.272-.257-3.27-2.906-5.92-6.177-6.178" transform="translate(-44 -44) translate(44 44) translate(0 8)"/>
                    <path fill="#1F1F1F" d="M50.002 14.347L50.002 3.104 47.931 3.104 47.931 16.344 49.744 16.344 50.002 16.344 54.441 16.344 54.441 14.347zM90.316 6.322h2.07s.112-3.514-3.365-3.514c-3.477 0-3.81 3.625-3.81 3.625s-.073 2.921 2.553 3.735c.665.074 3.07.037 2.884 2.256-.185 2.219-1.997 1.923-1.997 1.923s-1.702.074-1.85-2.07H84.62s.555 4.067 4.068 4.067c3.994 0 3.92-3.809 3.92-3.809s.543-2.586-2.145-3.662c-.37-.147-.887-.258-1.11-.295-.221-.037-1.774-.222-2.034-1.11-.288-.99-.296-2.33 1.37-2.663 0 0 1.663-.185 1.627 1.517M97.787 9.058c-.688.028-1.681.014-2.146.006V4.88h2.146s1.848.185 1.775 1.998c-.074 1.812-.85 2.144-1.775 2.181m.406-5.954H93.57v13.24h2.07v-5.288h2.147s3.66 0 3.698-4.142c.029-3.221-3.292-3.81-3.292-3.81M117.869 4.88h2.737s1.835.183 1.775 1.996c-.05 1.505-.85 2.146-1.775 2.182-.726.03-2.156.013-2.737.005V4.879zm4.808 11.464h2.213l-3.769-5.584c1.233-.227 3.158-1.031 3.183-3.846.029-3.221-3.291-3.81-3.291-3.81h-5.215v13.24h2.07v-7.1l.032.022 4.777 7.078z" transform="translate(-44 -44) translate(44 44) translate(0 8)"/>
                    <g transform="translate(-44 -44) translate(44 44) translate(0 8) translate(124.521 3.023)">
                        <mask id="v162kosh6b" fill="#fff">
                            <use xlink:href="#2z2yhu0h5a"/>
                        </mask>
                        <path fill="#1F1F1F" d="M7.328 0.106L4.862 0.106 4.862 0.081 2.791 0.081 2.791 0.106 0.276 0.106 0.227 0.106 0.227 2.128 0.276 2.128 2.791 2.128 2.791 13.322 4.862 13.322 4.862 2.128 7.328 2.128 7.377 2.128 7.377 0.106z" mask="url(#v162kosh6b)"/>
                    </g>
                </g>
            </g>
        </g>
    </g>
</svg>
