<svg width="34" height="34" viewBox="0 0 34 34" fill="none" xmlns="http://www.w3.org/2000/svg">
    <g clip-path="url(#5eothrrlja)">
        <path fill-rule="evenodd" clip-rule="evenodd" d="M17 6C10.925 6 6 10.925 6 17c0 5.312 3.765 9.744 8.772 10.774V19H13v-2.757h1.772v-1.655c0-2.25 1.001-3.587 3.844-3.587h2.367v2.758h-1.48c-1.106 0-1.18.385-1.18 1.104l-.003 1.38H21l-.314 2.757H18.32v8.923C23.773 27.27 28 22.628 28 17c0-6.075-4.925-11-11-11z" fill="#1F1F1F"/>
    </g>
    <defs>
        <clipPath id="5eothrrlja">
            <path fill="#fff" d="M0 0h34v34H0z"/>
        </clipPath>
    </defs>
</svg>
