<?xml version="1.0" encoding="UTF-8"?>
<svg width="27px" height="28px" viewBox="0 0 27 28" version="1.1" xmlns="http://www.w3.org/2000/svg" xmlns:xlink="http://www.w3.org/1999/xlink">
    <!-- Generator: Sketch 50.2 (55047) - http://www.bohemiancoding.com/sketch -->
    <title>ic_cart</title>
    <desc>Created with Sketch.</desc>
    <defs></defs>
    <g id="Page-1" stroke="none" stroke-width="1" fill="none" fill-rule="evenodd">
        <g id="데스크탑-카테고리메인" transform="translate(-1538.000000, -20.000000)" fill="#1F1F1F">
            <g id="cart" transform="translate(1538.000000, 20.000000)">
                <path d="M17.01,10.531 L19.98,10.531 C20.2510142,10.530552 20.4771124,10.7379536 20.5,11.008 L21.53,24.465 C21.5486952,24.6083513 21.500808,24.7523812 21.4,24.856 C21.3012714,24.9608394 21.1640042,25.0208035 21.02,25.022 L6.53,25.022 C6.38571653,25.0214776 6.24805857,24.9613721 6.14959719,24.8559048 C6.05113581,24.7504375 6.00061919,24.6089791 6.01,24.465 L7.05,11.008 C7.06790293,10.7395256 7.29092935,10.5309303 7.56,10.531 L10.54,10.531 L10.54,8.564 C10.4172594,7.33142338 11.0056106,6.13619963 12.057259,5.48171823 C13.1089075,4.82723682 14.4410925,4.82723682 15.492741,5.48171823 C16.5443894,6.13619963 17.1327406,7.33142338 17.01,8.564 L17.01,10.531 Z M15.98,10.531 L15.98,8.564 C16.0640452,7.72364066 15.6631134,6.90857106 14.9461422,6.46223081 C14.2291709,6.01589056 13.3208291,6.01589056 12.6038578,6.46223081 C11.8868866,6.90857106 11.4859548,7.72364066 11.57,8.564 L11.57,10.531 L15.98,10.531 Z M7.09,23.987 L20.46,23.987 L19.5,11.566 L8.04,11.566 L7.09,23.987 Z"></path>
            </g>
        </g>
    </g>
</svg>