<svg width="34" height="34" viewBox="0 0 34 34" fill="none" xmlns="http://www.w3.org/2000/svg">
    <path d="M21.48 7h-8.96A5.525 5.525 0 0 0 7 12.52v8.96A5.525 5.525 0 0 0 12.52 27h8.96A5.526 5.526 0 0 0 27 21.48v-8.96A5.525 5.525 0 0 0 21.48 7zm3.745 14.48a3.75 3.75 0 0 1-3.744 3.745h-8.962a3.749 3.749 0 0 1-3.745-3.744v-8.962a3.749 3.749 0 0 1 3.745-3.745h8.961a3.75 3.75 0 0 1 3.745 3.745v8.962z" fill="#000"/>
    <path d="M17 11.847A5.16 5.16 0 0 0 11.846 17 5.16 5.16 0 0 0 17 22.153 5.16 5.16 0 0 0 22.153 17 5.16 5.16 0 0 0 17 11.847zm0 8.532A3.383 3.383 0 0 1 13.62 17 3.383 3.383 0 0 1 17 13.621 3.383 3.383 0 0 1 20.379 17a3.383 3.383 0 0 1-3.38 3.379zM22.37 10.342a1.306 1.306 0 0 0-1.302 1.301c0 .342.14.678.383.92.24.242.577.382.919.382.343 0 .677-.14.92-.381a1.307 1.307 0 0 0 0-1.84 1.307 1.307 0 0 0-.92-.382z" fill="#000"/>
</svg>
